<svg xmlns="http://www.w3.org/2000/svg" width="21" height="22" fill="none" viewBox="0 0 21 22"><path stroke="#fff" stroke-linecap="round" stroke-linejoin="round" stroke-width="2" d="M15.173 1h2.578c.546-.01 1.077.188 1.492.557S19.927 2.44 20 3v7a2.33 2.33 0 0 1-.757 1.443A2.18 2.18 0 0 1 17.75 12h-2.578m-6.757 2v4c0 .796.305 1.56.848 2.122s1.28.878 2.048.878l3.861-9V1H4.285a1.9 1.9 0 0 0-1.273.476A2.02 2.02 0 0 0 2.354 2.7l-1.332 9a2.1 2.1 0 0 0 .055.858c.078.278.213.536.397.755.183.219.41.393.666.512.255.119.533.179.813.175z" opacity=".5"/></svg>