<svg xmlns="http://www.w3.org/2000/svg" width="24" height="24" fill="none" viewBox="0 0 24 24"><path fill="#fff" d="M11.997 7.998A4.01 4.01 0 0 0 7.995 12 4.01 4.01 0 0 0 11.997 16 4.01 4.01 0 0 0 15.998 12a4.01 4.01 0 0 0-4.001-4.002M23.999 12c0-1.657.015-3.3-.078-4.953-.093-1.922-.532-3.627-1.937-5.032C20.576.607 18.874.172 16.953.08 15.296-.014 13.653 0 12 0c-1.657 0-3.3-.015-4.953.078C5.125.172 3.42.61 2.015 2.015.607 3.423.172 5.125.08 7.047-.014 8.704 0 10.346 0 12s-.015 3.299.078 4.953c.093 1.921.531 3.626 1.936 5.031 1.408 1.408 3.11 1.843 5.032 1.937 1.657.093 3.299.078 4.953.078 1.657 0 3.299.015 4.953-.078 1.921-.094 3.626-.532 5.031-1.937 1.408-1.408 1.844-3.11 1.937-5.031.096-1.654.078-3.296.078-4.953m-12.002 6.157A6.15 6.15 0 0 1 5.84 12a6.15 6.15 0 0 1 6.157-6.157A6.15 6.15 0 0 1 18.154 12a6.15 6.15 0 0 1-6.157 6.157m6.409-11.128a1.436 1.436 0 0 1-1.438-1.438c0-.796.643-1.438 1.438-1.438a1.436 1.436 0 0 1 1.017 2.455 1.44 1.44 0 0 1-1.017.42" opacity=".2"/></svg>