<svg xmlns="http://www.w3.org/2000/svg" width="21" height="22" fill="none" viewBox="0 0 21 22"><path stroke="#fff" stroke-linecap="round" stroke-linejoin="round" stroke-width="2" d="M5.827 21H2.93c-.512 0-1.003-.21-1.366-.586S1 19.53 1 19v-7c0-.53.203-1.04.565-1.414S2.42 10 2.931 10h2.896m6.757-2V4c0-.796-.305-1.559-.848-2.121S10.456 1 9.688 1l-3.861 9v11h10.888a1.9 1.9 0 0 0 1.273-.476 2.02 2.02 0 0 0 .658-1.224l1.332-9c.042-.287.023-.58-.055-.858a2 2 0 0 0-.397-.754 1.9 1.9 0 0 0-.666-.513A1.9 1.9 0 0 0 18.048 8z" opacity=".5"/></svg>