<svg xmlns="http://www.w3.org/2000/svg" width="19" height="19" fill="none" viewBox="0 0 19 19"><path fill="#fff" d="M16.809 19h-.125C2.33 18.174.292 6.058.007 2.36A2.193 2.193 0 0 1 2.023 0h4.025a1.46 1.46 0 0 1 1.359.92l1.11 2.734a1.46 1.46 0 0 1-.321 1.578L6.64 6.803a6.85 6.85 0 0 0 5.537 5.554l1.585-1.57a1.46 1.46 0 0 1 1.585-.3l2.754 1.103A1.46 1.46 0 0 1 19 12.95v3.858A2.193 2.193 0 0 1 16.808 19M2.198 1.462a.73.73 0 0 0-.731.73v.059c.336 4.326 2.491 14.557 15.297 15.288a.73.73 0 0 0 .774-.687v-3.903l-2.754-1.103-2.097 2.083-.35-.044C5.982 13.088 5.12 6.73 5.12 6.665l-.043-.351L7.15 4.217 6.055 1.462z" opacity=".2"/></svg>