<svg xmlns="http://www.w3.org/2000/svg" width="24" height="24" fill="none" viewBox="0 0 24 24"><path fill="#fff" d="M4.703 0A4.717 4.717 0 0 0 0 4.703v14.594A4.717 4.717 0 0 0 4.703 24h14.594A4.717 4.717 0 0 0 24 19.297V4.703A4.717 4.717 0 0 0 19.297 0zm2.692 5.415h4.734q1.476-.001 2.237.113.761.111 1.426.47.718.389 1.075 1.036.356.648.357 1.496 0 .98-.492 1.745a2.9 2.9 0 0 1-1.352 1.128v.07q1.241.261 1.987 1.066.747.807.747 2.173 0 1-.378 1.757-.377.754-1.017 1.25a4.7 4.7 0 0 1-1.662.845q-.902.253-2.298.253H7.395zm3.348 2.457v2.836h.424q.864 0 1.211-.018.346-.018.716-.188.402-.188.556-.522.153-.336.154-.774 0-.327-.167-.667a1 1 0 0 0-.519-.495 2.1 2.1 0 0 0-.787-.16q-.455-.014-1.354-.012zm0 5.131v3.355h.182q1.313 0 1.815-.018c.335-.012.68-.092 1.026-.242q.46-.199.67-.582.213-.382.212-.866.001-.621-.251-.971-.254-.353-.756-.532-.306-.12-.842-.132a61 61 0 0 0-1.435-.012z" opacity=".2"/></svg>